<svg width="50" height="30" viewBox="0 0 50 30" fill="none" xmlns="http://www.w3.org/2000/svg">
<path d="M16.95 23.3935L32.1614 29.7497V14.2667L16.95 8.6167V23.3935Z" fill="#0B7572"/>
<path d="M43.8438 15.2992L39.6064 16.8203V12.5285L34.0107 14.4843V29.75L49.7654 23.3938V8.88867L43.8438 11.0074V15.2992ZM38.7915 26.2732L38.1396 26.5448V23.1222L38.7915 22.9049V26.2732ZM39.9323 25.8385L39.2804 26.1102V22.6876L39.9323 22.4703V25.8385ZM42.214 24.915L41.5621 25.1323V21.7641L42.214 21.5467V24.915ZM43.3549 24.426L42.703 24.6977V21.3838L43.3549 21.1665V24.426ZM45.6366 20.2429L46.2885 20.0256V23.2309L45.6366 23.5025V20.2429ZM44.3328 20.7319L44.9847 20.5145V23.7741L44.3328 24.0458V20.7319Z" fill="#0B7572"/>
<path d="M43.8423 8.8887L49.7639 6.71564L33.3573 0.957031L28.0876 2.80413L43.8423 8.78005V8.8887Z" fill="#0B7572"/>
<path d="M23.4148 4.43359L16.95 6.71531L33.3566 12.6912L39.5498 10.4638L23.4148 4.43359Z" fill="#0B7572"/>
<path d="M0.870361 21.981H14.3433V19.2646H2.11987L0.870361 21.981Z" fill="#0B7572"/>
<path d="M3.09863 17.2007H14.3442V14.4844H4.34814L3.09863 17.2007Z" fill="#0B7572"/>
<path d="M5.3252 12.2568V12.4741H14.3434V9.75781H6.52038L5.3252 12.2568Z" fill="#0B7572"/>
</svg>
