<svg width="35" height="38" viewBox="0 0 35 38" fill="none" xmlns="http://www.w3.org/2000/svg">
<path d="M28.2956 24.7074H6.38858C6.39137 24.017 6.17101 23.3442 5.76033 22.7892C5.34965 22.2343 4.77064 21.8268 4.10959 21.6277V6.77321C4.62011 6.62968 5.08493 6.35677 5.45901 5.98088C5.8331 5.60499 6.10379 5.13888 6.24486 4.62767H16.5106C16.6605 5.13608 16.9354 5.59881 17.3102 5.97361C17.685 6.3484 18.1477 6.62331 18.6561 6.77321V11.5673L16.7364 13.4972L15.7098 12.4707C15.6259 12.3859 15.5259 12.3187 15.4158 12.2728C15.3057 12.2269 15.1875 12.2033 15.0682 12.2033C14.9489 12.2033 14.8308 12.2269 14.7207 12.2728C14.6106 12.3187 14.5106 12.3859 14.4266 12.4707C14.3416 12.5555 14.2741 12.6563 14.2281 12.7673C14.182 12.8783 14.1583 12.9973 14.1583 13.1174C14.1583 13.2376 14.182 13.3565 14.2281 13.4675C14.2741 13.5785 14.3416 13.6793 14.4266 13.7642L15.4532 14.7907L14.4266 15.8173C14.3416 15.9022 14.2741 16.003 14.2281 16.1139C14.182 16.2249 14.1583 16.3439 14.1583 16.464C14.1583 16.5842 14.182 16.7032 14.2281 16.8141C14.2741 16.9251 14.3416 17.0259 14.4266 17.1108C14.5106 17.1955 14.6106 17.2628 14.7207 17.3087C14.8308 17.3546 14.9489 17.3782 15.0682 17.3782C15.1875 17.3782 15.3057 17.3546 15.4158 17.3087C15.5259 17.2628 15.6259 17.1955 15.7098 17.1108L16.7364 16.0842L18.923 18.2708C19.007 18.3555 19.1069 18.4228 19.2171 18.4687C19.3272 18.5146 19.4453 18.5382 19.5646 18.5382C19.6839 18.5382 19.8021 18.5146 19.9122 18.4687C20.0223 18.4228 20.1222 18.3555 20.2062 18.2708L22.475 16.0739L23.5015 17.1005C23.5839 17.1957 23.685 17.2728 23.7985 17.327C23.912 17.3813 24.0356 17.4115 24.1613 17.4158C24.2871 17.4201 24.4124 17.3983 24.5293 17.3519C24.6463 17.3055 24.7524 17.2355 24.841 17.1461C24.9297 17.0568 24.9989 16.9501 25.0443 16.8328C25.0898 16.7155 25.1106 16.59 25.1053 16.4643C25.1 16.3386 25.0688 16.2153 25.0136 16.1022C24.9585 15.9891 24.8805 15.8886 24.7847 15.807L23.7582 14.7805L24.7847 13.7539C24.8698 13.669 24.9373 13.5682 24.9833 13.4572C25.0293 13.3463 25.053 13.2273 25.053 13.1072C25.053 12.987 25.0293 12.868 24.9833 12.7571C24.9373 12.6461 24.8698 12.5453 24.7847 12.4604C24.7007 12.3757 24.6008 12.3084 24.4907 12.2625C24.3806 12.2166 24.2624 12.193 24.1431 12.193C24.0238 12.193 23.9057 12.2166 23.7956 12.2625C23.6855 12.3084 23.5855 12.3757 23.5015 12.4604L22.475 13.487L20.5655 11.5673V6.77321C21.0951 6.61501 21.5746 6.32204 21.957 5.92295C22.3394 5.52386 22.6116 5.03234 22.7471 4.49647C22.8825 3.96059 22.8765 3.39874 22.7297 2.86588C22.5828 2.33303 22.3002 1.84742 21.9093 1.45659C21.5185 1.06575 21.0329 0.783079 20.5 0.636229C19.9672 0.489378 19.4053 0.483381 18.8694 0.618824C18.3336 0.754266 17.842 1.02651 17.443 1.40891C17.0439 1.79131 16.7509 2.27077 16.5927 2.80037H6.32699C6.16585 2.2765 5.87256 1.80292 5.47535 1.42525C5.07814 1.04758 4.59039 0.778524 4.05906 0.643994C3.52773 0.509464 2.97071 0.513988 2.44164 0.657131C1.91256 0.800273 1.42924 1.07721 1.03822 1.46129C0.647199 1.84536 0.36164 2.32364 0.209037 2.85006C0.0564341 3.37649 0.0419267 3.93334 0.166912 4.467C0.291896 5.00065 0.552164 5.49315 0.922657 5.89706C1.29315 6.30098 1.76139 6.60271 2.28229 6.77321V21.6482C1.62124 21.8474 1.04223 22.2548 0.631555 22.8098C0.220877 23.3647 0.000514 24.0375 0.00330633 24.7279C0.00330633 25.0256 0.00330633 25.3028 0.00330633 25.5492C-0.00110211 25.5764 -0.00110211 25.6041 0.00330633 25.6313V31.1132C0.0114379 32.8023 0.687433 34.4196 1.88373 35.612C3.08003 36.8045 4.69948 37.4753 6.38858 37.478H28.2956C29.9891 37.478 31.6132 36.8052 32.8107 35.6078C34.0082 34.4103 34.6809 32.7862 34.6809 31.0927C34.6809 29.3992 34.0082 27.7751 32.8107 26.5776C31.6132 25.3801 29.9891 24.7074 28.2956 24.7074ZM21.1096 14.7805L19.6108 16.3306L18.0812 14.7805L19.6108 13.2406L21.1096 14.7805ZM28.2956 33.8234C27.7526 33.8254 27.2213 33.6661 26.769 33.3657C26.3167 33.0653 25.9638 32.6373 25.755 32.1361C25.5463 31.6348 25.4912 31.0829 25.5966 30.5502C25.702 30.0176 25.9633 29.5282 26.3472 29.1443C26.7312 28.7603 27.2205 28.4991 27.7531 28.3937C28.2858 28.2882 28.8377 28.3434 29.339 28.5521C29.8403 28.7608 30.2682 29.1137 30.5686 29.566C30.869 30.0184 31.0283 30.5497 31.0263 31.0927C31.0263 31.8169 30.7386 32.5115 30.2265 33.0236C29.7144 33.5357 29.0198 33.8234 28.2956 33.8234ZM3.6579 31.0927C3.65587 30.5497 3.81516 30.0184 4.11555 29.566C4.41595 29.1137 4.84392 28.7608 5.34518 28.5521C5.84644 28.3434 6.3984 28.2882 6.93105 28.3937C7.46369 28.4991 7.95302 28.7603 8.33697 29.1443C8.72091 29.5282 8.98217 30.0176 9.0876 30.5502C9.19304 31.0829 9.13789 31.6348 8.92916 32.1361C8.72044 32.6373 8.36753 33.0653 7.91522 33.3657C7.4629 33.6661 6.93156 33.8254 6.38858 33.8234C5.66519 33.8207 4.9722 33.5321 4.46069 33.0206C3.94917 32.5091 3.6606 31.8161 3.6579 31.0927ZM23.7274 31.0927C23.7274 31.6352 23.5663 32.1656 23.2647 32.6165C22.9631 33.0675 22.5344 33.4188 22.033 33.626C21.5315 33.8331 20.9799 33.8868 20.4479 33.7802C19.9159 33.6736 19.4276 33.4115 19.0446 33.0272C18.6617 32.6428 18.4015 32.1535 18.2969 31.6211C18.1923 31.0887 18.248 30.5373 18.4571 30.0366C18.6661 29.536 19.019 29.1086 19.4711 28.8087C19.9232 28.5087 20.4541 28.3497 20.9967 28.3517C21.7219 28.3545 22.4164 28.6444 22.9282 29.1582C23.44 29.6719 23.7274 30.3675 23.7274 31.0927ZM16.4284 31.0927C16.4284 31.6348 16.2677 32.1647 15.9665 32.6155C15.6653 33.0662 15.2373 33.4175 14.7364 33.625C14.2356 33.8324 13.6845 33.8867 13.1528 33.781C12.6211 33.6752 12.1327 33.4142 11.7494 33.0308C11.366 32.6475 11.105 32.1591 10.9992 31.6274C10.8935 31.0957 10.9477 30.5446 11.1552 30.0438C11.3627 29.5429 11.714 29.1148 12.1647 28.8137C12.6155 28.5125 13.1454 28.3517 13.6875 28.3517C14.4144 28.3517 15.1116 28.6405 15.6256 29.1545C16.1397 29.6686 16.4284 30.3657 16.4284 31.0927Z" fill="#0B7572"/>
</svg>
